<svg width="476" height="179" viewBox="0 0 476 179" fill="none" xmlns="http://www.w3.org/2000/svg"
>
    <path
            d="M2.66172 70.8602C2.66172 53.493 8.11562 38.807 19.0234 26.8023C29.9922 14.7367 43.3375 8.70391 59.0594 8.70391C64.9703 8.70391 70.6984 9.46563 76.2437 10.9891C81.85 12.4516 85.3539 14.0055 86.7555 15.6508C87.4867 16.3211 88.0656 18.4234 88.4922 21.9578C88.9797 25.4922 89.2234 29.8188 89.2234 34.9375C89.2234 35.9734 89.0711 36.7961 88.7664 37.4055C88.5227 37.9539 88.157 38.2281 87.6695 38.2281C87.0602 38.2281 86.3594 37.832 85.5672 37.0398C84.8359 36.1867 83.4953 34.1148 81.5453 30.8242C77.8281 24.7305 74.1414 20.3734 70.4852 17.7531C66.8289 15.0719 62.7766 13.7313 58.3281 13.7313C47.8469 13.7313 39.1633 19.1852 32.2773 30.093C25.3914 40.9398 21.9484 54.8336 21.9484 71.7742C21.9484 87.4961 25.3305 100.72 32.0945 111.445C38.8586 122.17 47.0242 127.532 56.5914 127.532C62.1977 127.532 66.9812 126.009 70.9422 122.962C74.9641 119.854 78.4984 114.948 81.5453 108.245C81.85 107.575 82.2766 106.661 82.825 105.503C85.0187 100.263 86.7555 97.6422 88.0352 97.6422C88.6445 97.6422 89.132 98.0078 89.4977 98.7391C89.9242 99.4094 90.1375 100.354 90.1375 101.573C90.1375 101.451 90.0461 103.157 89.8633 106.691C89.6805 110.226 89.5891 113.821 89.5891 117.477C89.5891 121.926 86.4812 125.734 80.2656 128.903C74.1109 132.011 66.4633 133.565 57.3227 133.565C41.7836 133.565 28.7734 127.563 18.2922 115.558C7.87187 103.553 2.66172 88.6539 2.66172 70.8602Z"
            fill="#5EBD3E"/>
    <path
            d="M117.066 16.382V115.741C117.066 117.934 117.34 119.641 117.888 120.859C118.498 122.078 119.412 122.992 120.631 123.602C121.667 124.15 123.16 124.546 125.11 124.79C127.73 124.973 129.04 126.009 129.04 127.898C129.04 128.69 128.766 129.238 128.217 129.543C127.73 129.848 126.785 130 125.384 130C124.104 130 121.636 129.878 117.98 129.634C114.385 129.391 111.46 129.269 109.205 129.269C106.889 129.269 104.025 129.391 100.613 129.634C97.2002 129.878 95.0064 130 94.0314 130C92.6298 130 91.7158 129.817 91.2892 129.452C90.9236 129.086 90.7408 128.446 90.7408 127.532C90.7408 125.948 91.8377 125.034 94.0314 124.79C95.5548 124.485 96.7431 124.15 97.5962 123.784C99.0587 123.297 100.034 122.627 100.521 121.773C101.07 120.92 101.344 119.305 101.344 116.929V115.741V22.3234V19.7641C101.344 17.2656 99.6681 15.3156 96.3166 13.9141C95.1587 13.5484 94.3666 13.1828 93.94 12.8172C93.5134 12.4516 93.3002 12.025 93.3002 11.5375C93.3002 10.0141 94.9455 8.82578 98.2361 7.97266H98.4189L101.71 6.78438C104.878 5.62656 107.925 4.225 110.85 2.57969C113.775 0.934377 115.299 0.111721 115.42 0.111721C116.213 0.111721 116.792 0.38594 117.157 0.934377C117.523 1.42188 117.706 2.33594 117.706 3.67656C117.706 4.52969 117.584 6.38828 117.34 9.25235C117.157 12.0555 117.066 14.432 117.066 16.382ZM169.262 90.1469C169.262 89.2938 169.171 88.7148 168.988 88.4102C168.866 88.0445 168.653 87.8617 168.348 87.8617C168.166 87.8617 167.891 87.9531 167.526 88.1359C167.16 88.2578 166.794 88.4102 166.429 88.593L160.305 91.6094C156.587 93.4984 153.815 95.9969 151.987 99.1047C150.159 102.152 149.244 105.899 149.244 110.348C149.244 113.821 149.854 116.533 151.073 118.483C152.352 120.433 154.119 121.408 156.374 121.408C159.604 121.408 162.559 119.793 165.241 116.563C167.922 113.334 169.262 109.464 169.262 104.955V90.1469ZM184.619 65.5586V109.068C184.619 113.821 184.954 117.02 185.624 118.666C186.355 120.25 187.574 121.042 189.28 121.042C190.255 121.042 191.505 120.433 193.028 119.214C194.551 117.934 195.679 117.295 196.41 117.295C197.141 117.295 197.69 117.538 198.055 118.026C198.421 118.513 198.604 119.184 198.604 120.037C198.604 122.048 196.654 124.729 192.754 128.08C188.915 131.371 185.624 133.016 182.882 133.016C179.835 133.016 177.215 131.98 175.021 129.909C172.888 127.837 171.091 124.638 169.628 120.311H168.531L164.601 123.602C159.787 127.745 156.069 130.427 153.449 131.645C150.89 132.925 148.361 133.565 145.862 133.565C141.841 133.565 138.611 132.194 136.173 129.452C133.736 126.709 132.517 123.023 132.517 118.391C132.517 111.688 134.589 105.899 138.733 101.024C142.937 96.0883 150.798 90.7563 162.316 85.0281L166.977 82.6516C167.83 82.2859 168.379 81.8594 168.623 81.3719C168.927 80.8844 169.08 79.818 169.08 78.1727V64.8273C169.08 58.7945 168.531 54.8031 167.434 52.8531C166.398 50.8422 164.509 49.8367 161.767 49.8367C158.964 49.8367 156.587 50.7508 154.637 52.5789C152.687 54.3461 150.707 57.6367 148.696 62.4508C146.746 66.8992 144.826 69.8852 142.937 71.4086C141.109 72.932 138.763 73.6938 135.899 73.6938C134.985 73.6938 134.162 73.3586 133.431 72.6883C132.7 72.018 132.334 71.2258 132.334 70.3117C132.334 63.9742 135.777 58.0328 142.663 52.4875C149.549 46.8813 157.471 44.0781 166.429 44.0781C173.132 44.0781 177.824 45.5102 180.505 48.3742C183.248 51.2383 184.619 56.9664 184.619 65.5586Z"
            fill="#FFB900"/>
    <path
            d="M226.121 44.2609C233.494 44.2609 238.735 44.9617 241.843 46.3633C244.95 47.7648 246.504 50.1719 246.504 53.5844C246.504 58.4594 246.291 61.8109 245.864 63.6391C245.438 65.4672 244.676 66.3813 243.579 66.3813C242.482 66.3813 241.568 65.2234 240.837 62.9078C240.106 60.5313 239.314 58.6117 238.461 57.1492C236.998 54.5289 235.2 52.5484 233.068 51.2078C230.996 49.8063 228.68 49.1055 226.121 49.1055C222.647 49.1055 219.783 50.1414 217.529 52.2133C215.274 54.2852 214.147 56.9359 214.147 60.1656C214.147 64.9797 218.9 69.8547 228.406 74.7906C230.295 75.8266 231.788 76.6188 232.885 77.1672C239.161 80.4578 243.671 84.175 246.413 88.3188C249.216 92.4625 250.618 97.4898 250.618 103.401C250.618 112.541 247.936 119.854 242.574 125.338C237.211 130.823 230.173 133.565 221.459 133.565C217.742 133.565 214.147 133.138 210.673 132.285C207.261 131.493 204.488 130.427 202.355 129.086C201.441 128.538 200.801 127.867 200.436 127.075C200.07 126.222 199.887 124.698 199.887 122.505V117.843C199.887 111.566 200.07 107.575 200.436 105.869C200.862 104.102 201.624 103.218 202.721 103.218C204 103.218 205.067 104.924 205.92 108.337C206.834 111.688 207.839 114.552 208.936 116.929C210.704 120.829 212.806 123.723 215.243 125.613C217.681 127.441 220.575 128.355 223.927 128.355C227.949 128.355 231.209 126.953 233.707 124.15C236.267 121.347 237.547 117.691 237.547 113.181C237.547 106.661 231.544 100.171 219.539 93.7117C211.739 89.507 206.621 85.7289 204.183 82.3773C201.746 78.9648 200.527 74.6688 200.527 69.4891C200.527 61.9938 202.904 55.9305 207.657 51.2992C212.41 46.607 218.564 44.2609 226.121 44.2609Z"
            fill="#F78200"/>
    <path
            d="M278.186 44.2609C285.559 44.2609 290.8 44.9617 293.908 46.3633C297.015 47.7648 298.569 50.1719 298.569 53.5844C298.569 58.4594 298.356 61.8109 297.93 63.6391C297.503 65.4672 296.741 66.3813 295.644 66.3813C294.547 66.3813 293.633 65.2234 292.902 62.9078C292.171 60.5313 291.379 58.6117 290.526 57.1492C289.063 54.5289 287.265 52.5484 285.133 51.2078C283.061 49.8063 280.745 49.1055 278.186 49.1055C274.712 49.1055 271.848 50.1414 269.594 52.2133C267.339 54.2852 266.212 56.9359 266.212 60.1656C266.212 64.9797 270.965 69.8547 280.471 74.7906C282.36 75.8266 283.853 76.6188 284.95 77.1672C291.226 80.4578 295.736 84.175 298.478 88.3188C301.281 92.4625 302.683 97.4898 302.683 103.401C302.683 112.541 300.001 119.854 294.639 125.338C289.276 130.823 282.238 133.565 273.524 133.565C269.807 133.565 266.212 133.138 262.738 132.285C259.326 131.493 256.553 130.427 254.42 129.086C253.506 128.538 252.866 127.867 252.501 127.075C252.135 126.222 251.952 124.698 251.952 122.505V117.843C251.952 111.566 252.135 107.575 252.501 105.869C252.927 104.102 253.689 103.218 254.786 103.218C256.065 103.218 257.132 104.924 257.985 108.337C258.899 111.688 259.905 114.552 261.001 116.929C262.769 120.829 264.871 123.723 267.308 125.613C269.746 127.441 272.64 128.355 275.992 128.355C280.014 128.355 283.274 126.953 285.772 124.15C288.332 121.347 289.612 117.691 289.612 113.181C289.612 106.661 283.609 100.171 271.605 93.7117C263.805 89.507 258.686 85.7289 256.248 82.3773C253.811 78.9648 252.592 74.6688 252.592 69.4891C252.592 61.9938 254.969 55.9305 259.722 51.2992C264.475 46.607 270.63 44.2609 278.186 44.2609Z"
            fill="#E23838"/>
    <path
            d="M327.417 47.643V115.923C327.417 118.239 327.63 119.976 328.057 121.134C328.544 122.23 329.337 123.053 330.434 123.602C331.53 124.15 332.962 124.607 334.73 124.973C336.984 125.277 338.112 126.13 338.112 127.532C338.112 128.507 337.929 129.177 337.563 129.543C337.198 129.848 336.253 130 334.73 130C333.694 130 331.439 129.878 327.966 129.634C324.553 129.391 321.75 129.269 319.556 129.269C317.119 129.269 314.377 129.391 311.33 129.634C308.283 129.878 306.485 130 305.937 130C304.596 130 303.773 129.817 303.469 129.452C303.225 129.086 303.103 128.385 303.103 127.349C303.103 125.948 303.987 125.095 305.754 124.79C307.034 124.607 308.039 124.333 308.77 123.967C309.989 123.297 310.812 122.474 311.238 121.499C311.665 120.524 311.878 118.666 311.878 115.923V71.7742C311.878 68.9102 311.512 66.7469 310.781 65.2844C310.05 63.8219 308.618 62.9383 306.485 62.6336C305.449 62.4508 304.779 62.207 304.474 61.9023C304.169 61.5367 304.017 61.0188 304.017 60.3484C304.017 59.0078 305.967 57.2711 309.867 55.1383C310.233 54.9555 310.842 54.6508 311.695 54.2242C312.548 53.7367 313.249 53.3406 313.798 53.0359C316.479 51.4516 318.977 49.5016 321.293 47.1859C323.669 44.8703 325.102 43.7125 325.589 43.7125C326.198 43.7125 326.655 44.0477 326.96 44.718C327.265 45.3883 327.417 46.3633 327.417 47.643ZM320.379 11.7203C322.573 11.7203 324.492 12.7563 326.137 14.8281C327.783 16.9 328.605 19.2766 328.605 21.9578C328.605 24.6391 327.783 27.0461 326.137 29.1789C324.492 31.2508 322.573 32.2867 320.379 32.2867C318.185 32.2867 316.235 31.2508 314.529 29.1789C312.884 27.0461 312.061 24.6391 312.061 21.9578C312.061 19.2766 312.884 16.9 314.529 14.8281C316.235 12.7563 318.185 11.7203 320.379 11.7203ZM371.395 44.2609C377.366 44.2609 382.455 45.3883 386.659 47.643C390.925 49.8367 393.058 52.518 393.058 55.6867C393.058 60.257 392.601 63.9438 391.687 66.7469C390.773 69.4891 389.554 70.8602 388.03 70.8602C387.238 70.8602 386.385 70.4031 385.471 69.4891C384.618 68.5141 383.795 67.143 383.003 65.3758C382.759 64.8883 382.455 64.157 382.089 63.182C377.945 53.7977 373.741 49.1055 369.475 49.1055C364.295 49.1055 359.725 52.6398 355.764 59.7086C351.803 66.7773 349.823 75.4914 349.823 85.8508C349.823 97.1242 352.199 106.143 356.952 112.907C361.705 119.671 367.952 123.053 375.691 123.053C379.652 123.053 383.43 121.743 387.025 119.123C390.62 116.502 392.266 115.192 391.961 115.192C392.692 115.192 393.271 115.436 393.698 115.923C394.185 116.35 394.429 116.929 394.429 117.66C394.429 120.768 391.656 124.211 386.111 127.989C380.627 131.706 374.655 133.565 368.195 133.565C357.897 133.565 349.518 129.513 343.059 121.408C336.599 113.303 333.37 102.7 333.37 89.5984C333.37 76.0703 336.904 65.132 343.973 56.7836C351.041 48.4352 360.182 44.2609 371.395 44.2609Z"
            fill="#973999"/>
    <path
            d="M458.688 62.6336L443.331 103.766C436.75 121.195 430.87 138.562 425.69 155.868C425.141 157.757 424.776 159.006 424.593 159.616L424.41 160.347C422.216 167.598 418.225 171.224 412.436 171.224C409.998 171.224 408.201 170.645 407.043 169.487C405.885 168.391 405.306 166.715 405.306 164.46C405.306 160.377 405.885 157.635 407.043 156.234C408.262 154.832 410.486 154.131 413.716 154.131H414.447C416.945 154.131 418.682 153.674 419.657 152.76C420.693 151.846 421.638 150.201 422.491 147.824L426.421 136.947C426.848 135.85 427.183 134.784 427.427 133.748C427.67 132.773 427.792 131.889 427.792 131.097C427.792 130.305 427.518 128.751 426.97 126.435C426.482 124.12 425.812 121.621 424.959 118.94L409.602 71.957C407.835 66.5945 406.312 62.6336 405.032 60.0742C403.752 57.5148 402.412 55.7477 401.01 54.7727C400.096 54.1633 398.664 53.5539 396.714 52.9445C394.703 52.3352 393.698 51.2992 393.698 49.8367C393.698 49.0445 393.911 48.4961 394.338 48.1914C394.764 47.8258 395.617 47.643 396.897 47.643C396.958 47.643 398.877 47.7648 402.655 48.0086C406.495 48.2523 410.303 48.3742 414.081 48.3742C417.92 48.3742 421.546 48.2523 424.959 48.0086C428.371 47.7648 429.864 47.643 429.438 47.643C430.352 47.643 430.961 47.7953 431.266 48.1C431.57 48.3438 431.723 48.8617 431.723 49.6539C431.723 51.4211 430.199 52.6703 427.152 53.4016C424.166 54.0719 422.673 55.1383 422.673 56.6008C422.673 57.9414 422.856 59.6477 423.222 61.7195C423.648 63.7914 424.227 65.8938 424.959 68.0266L435.47 101.39C435.714 102.182 435.927 102.761 436.11 103.127C436.354 103.431 436.628 103.584 436.933 103.584C437.116 103.584 437.329 103.401 437.573 103.035C437.877 102.609 438.152 102.06 438.395 101.39L449.821 69.3063C450.491 67.2953 451.07 65.193 451.558 62.9992C452.045 60.7445 452.289 59.2516 452.289 58.5203C452.289 56.0828 450.522 54.4375 446.988 53.5844C443.514 52.7313 441.777 51.4211 441.777 49.6539C441.777 48.8617 441.899 48.3438 442.143 48.1C442.448 47.7953 443.088 47.643 444.063 47.643C444.245 47.643 445.769 47.7344 448.633 47.9172C451.558 48.1 454.391 48.1914 457.134 48.1914C459.51 48.1914 462.039 48.1 464.72 47.9172C467.402 47.7344 468.864 47.643 469.108 47.643C469.9 47.643 470.418 47.7648 470.662 48.0086C470.905 48.1914 471.027 48.8008 471.027 49.8367C471.027 50.9945 469.443 52.1523 466.274 53.3102C463.105 54.407 460.577 57.5148 458.688 62.6336Z"
            fill="#009CDF"/>
</svg>
